<svg width="44" height="36" viewBox="0 0 44 36" fill="none" xmlns="http://www.w3.org/2000/svg">
<path fill-rule="evenodd" clip-rule="evenodd" d="M16.5955 21.3333L17.5788 20.3483C17.8938 20.0333 18.0672 19.615 18.0672 19.17V15.2725C18.0672 14.1417 18.5588 13.0608 19.4172 12.3092C20.2822 11.5508 21.3838 11.2175 22.5313 11.3683C24.4705 11.6258 25.933 13.3792 25.933 15.4475V19.17C25.933 19.615 26.1063 20.0333 26.4205 20.3475L27.4047 21.3333H16.5955ZM23.6663 23.2842C23.6663 24.0333 22.903 24.6667 21.9997 24.6667C21.0963 24.6667 20.333 24.0333 20.333 23.2842V23H23.6663V23.2842ZM29.1005 20.6733L27.5997 19.17V15.4475C27.5997 12.5467 25.5147 10.0825 22.7497 9.71668C21.148 9.50335 19.5313 9.99251 18.3188 11.0558C17.0988 12.1242 16.4005 13.6608 16.4005 15.2725L16.3997 19.17L14.8988 20.6733C14.508 21.065 14.3922 21.6475 14.6038 22.1583C14.8163 22.67 15.3105 23 15.8638 23H18.6663V23.2842C18.6663 24.9658 20.1613 26.3333 21.9997 26.3333C23.838 26.3333 25.333 24.9658 25.333 23.2842V23H28.1355C28.6888 23 29.1822 22.67 29.3938 22.1592C29.6063 21.6475 29.4913 21.0642 29.1005 20.6733Z" fill="#666E7D"/>
</svg>
