<svg width="44" height="36" viewBox="0 0 44 36" fill="none" xmlns="http://www.w3.org/2000/svg">
<path fill-rule="evenodd" clip-rule="evenodd" d="M21.4788 24.6667H22.5213V24.0275C22.5213 23.2483 23.0004 22.5483 23.7413 22.2425C24.5079 21.9233 25.3454 22.08 25.8971 22.635L26.3463 23.0858L27.0863 22.3458L26.6321 21.8925C26.0796 21.3408 25.9238 20.5042 26.2346 19.7617C26.2346 19.7617 26.2354 19.7608 26.2354 19.76L26.2446 19.7367C26.5479 19.0008 27.2488 18.5208 28.0279 18.5208H28.6663V17.4792H28.0279C27.2488 17.4792 26.5479 17 26.2429 16.2592C25.9221 15.4925 26.0796 14.655 26.6346 14.1025L27.0854 13.6533L26.3463 12.9142L25.8921 13.3683C25.3404 13.92 24.5046 14.0758 23.7621 13.7658C23.0013 13.4517 22.5213 12.7517 22.5213 11.9725V11.3333H21.4788V11.9725C21.4788 12.7517 20.9996 13.4517 20.2588 13.7575C19.4929 14.0783 18.6554 13.9208 18.1029 13.365L17.6538 12.9142L16.9138 13.6542L17.3679 14.1075C17.9196 14.6592 18.0763 15.4958 17.7654 16.2383C17.4521 16.9992 16.7513 17.4792 15.9721 17.4792H15.3329V18.5208H15.9721C16.7513 18.5208 17.4521 19 17.7571 19.7408C18.0779 20.5075 17.9204 21.345 17.3654 21.8975L16.9146 22.3467L17.6538 23.0858L18.1079 22.6317C18.6596 22.08 19.4954 21.9242 20.2379 22.2342C20.9988 22.5483 21.4788 23.2483 21.4788 24.0275V24.6667ZM22.7854 26.3333H21.2088C20.4388 26.3333 19.8121 25.7067 19.8121 24.9367V24.0275C19.8121 23.905 19.7146 23.8208 19.6229 23.7833C19.5029 23.7342 19.3746 23.7242 19.2863 23.81L18.6446 24.4525C18.0979 24.9975 17.2096 24.9992 16.6638 24.4525L15.5471 23.3358C15.2821 23.0708 15.1371 22.7192 15.1371 22.3442C15.1379 21.97 15.2838 21.6183 15.5496 21.3533L16.1896 20.7158C16.2771 20.6283 16.2679 20.5 16.2288 20.4075C16.1788 20.285 16.0954 20.1875 15.9721 20.1875H15.0688C14.2954 20.1875 13.6663 19.5592 13.6663 18.7858V17.2092C13.6663 16.4383 14.2929 15.8125 15.0638 15.8125H15.9721C16.0946 15.8125 16.1788 15.7142 16.2163 15.6225C16.2663 15.5025 16.2763 15.3733 16.1896 15.2867L15.5471 14.645C15.0021 14.0975 15.0021 13.2092 15.5471 12.6642L16.6638 11.5475C16.9288 11.2825 17.2796 11.1375 17.6538 11.1375H17.6554C18.0296 11.1375 18.3821 11.2833 18.6463 11.5492L19.2838 12.19C19.3713 12.2783 19.5004 12.2683 19.5929 12.2292C19.7146 12.1783 19.8121 12.095 19.8121 11.9725V11.0692C19.8121 10.2958 20.4413 9.66666 21.2146 9.66666H22.7913C23.5613 9.66666 24.1879 10.2933 24.1879 11.0633V11.9725C24.1879 12.095 24.2854 12.1792 24.3771 12.2167C24.4979 12.2667 24.6263 12.2775 24.7138 12.19L25.3554 11.5475C25.9021 11.0025 26.7904 11.0008 27.3363 11.5475L28.4538 12.665C28.7188 12.9292 28.8638 13.2808 28.8629 13.6558C28.8629 14.0292 28.7171 14.3817 28.4513 14.6458L27.8104 15.2842C27.7229 15.3717 27.7321 15.5 27.7713 15.5925C27.8213 15.715 27.9046 15.8125 28.0279 15.8125H28.9313C29.7046 15.8125 30.3329 16.4408 30.3329 17.2142V18.7908C30.3329 19.5617 29.7071 20.1875 28.9363 20.1875H28.0279C27.9054 20.1875 27.8213 20.2858 27.7838 20.3775C27.7829 20.3783 27.7729 20.4033 27.7721 20.405C27.7338 20.4975 27.7238 20.6267 27.8104 20.7133L28.4529 21.355C28.9979 21.9025 28.9979 22.7908 28.4529 23.3358L27.3363 24.4525C27.0713 24.7175 26.7204 24.8625 26.3463 24.8625H26.3446C25.9704 24.8625 25.6179 24.7167 25.3538 24.4508L24.7163 23.81C24.6288 23.7225 24.4988 23.7325 24.4071 23.7708C24.2854 23.8217 24.1879 23.905 24.1879 24.0275V24.9308C24.1879 25.7042 23.5588 26.3333 22.7854 26.3333ZM22 16.75C21.3108 16.75 20.75 17.3108 20.75 18C20.75 18.6892 21.3108 19.25 22 19.25C22.6892 19.25 23.25 18.6892 23.25 18C23.25 17.3108 22.6892 16.75 22 16.75ZM22 20.9167C20.3917 20.9167 19.0833 19.6083 19.0833 18C19.0833 16.3917 20.3917 15.0833 22 15.0833C23.6083 15.0833 24.9167 16.3917 24.9167 18C24.9167 19.6083 23.6083 20.9167 22 20.9167Z" fill="#666E7D"/>
</svg>
